#!OML:ASF F:\VICON\USERDATA\INSTALL\rory3\rory3.ASF
:FULLY-SPECIFIED
:DEGREES
115
root 0.15529931464315547 17.519194133534327 63.43755710183501 2.614797952002295 0.7142051477546547 -0.48760762978706373
lfemur 4.636457055531121 -3.9529830759435693 -21.05717771480629
ltibia 41.07255950371147
lfoot 10.664623303007097 -11.058143228948525
ltoes -13.28995385431364
rfemur -31.575748685627634 3.8467056696353987 25.024699206181218
rtibia 42.68224829147792
rfoot -5.097007864612921 -6.397466458514927
rtoes 5.560676453596315
lowerback 12.332108798982155 -0.5532019615543531 0.192403391828186
upperback -0.6293308797127644 -0.6319209650232667 2.3981097314989976
thorax -7.6549860360836455 -0.25562843612759756 2.8453841536190607
lowerneck -17.87723653835206 -2.9188254940230225 -3.489622317403188
upperneck 18.626703973787592 -3.442164575475614 2.472763607911106
head 8.818506080574078 -1.5644439828576957 1.0464496595812043
lclavicle -2.262978380162355e-15 6.838164168054767e-16
lhumerus -37.894742327742 -9.035374615249701 90.13040101919174
lradius 75.73823090438552
lwrist 22.549666115557574
lhand -26.85449261987413 12.349896461548367
lfingers 7.125019999999999
lthumb -0.5597489435182472 41.95265716705365
rclavicle -2.2593394930148913e-15 6.863876029114741e-16
rhumerus -40.11110816015833 -6.842023166868103 -86.35382522731764
rradius 59.97254582387241
rwrist 1.0873500328322852
rhand -16.402420117269173 30.717049294912723
rfingers 7.125019999999999
rthumb 9.07864113572632 1.546736627585323
116
root 0.15125800492906027 17.511326413826474 63.64850350005977 2.689635929022508 -0.10882938074031379 -0.8933473807619132
lfemur 3.5782183340521154 -3.5504421123112255 -20.513491332627613
ltibia 44.125636843273256
lfoot 12.100167194044447 -10.65810857091388
ltoes -10.018133353196518
rfemur -30.529272314032937 4.094259310972874 26.05642609889293
rtibia 41.31583763765965
rfoot -5.953537955669131 -4.762371084547635
rtoes 3.630906013605993
lowerback 12.401431504540541 -0.3911395688395829 0.597619038048336
upperback -0.6616028763563759 -0.3436488459900229 2.4687805088577575
thorax -7.6812395041805654 -0.12033146835610986 2.687035133309708
lowerneck -17.837619239802805 -2.943307672997654 -3.493806808796827
upperneck 18.632230926863528 -3.485548977104332 2.4837204873292027
head 8.828858339356595 -1.5815981219074873 1.0452907884234102
lclavicle -2.2637329516416946e-15 6.832887332029223e-16
lhumerus -39.44589796879893 -8.927073408940188 90.2365463237198
lradius 75.68119063666882
lwrist 22.670040780986934
lhand -26.735609637853443 12.002205163567321
lfingers 7.125019999999999
lthumb -0.3784788529348286 41.649654234364775
rclavicle -2.259558898179579e-15 6.862337487062083e-16
rhumerus -40.010785100664656 -6.709645116913871 -86.2752191512589
rradius 60.13082784114007
rwrist 0.955761446398117
rhand -16.326909862009853 30.694291262186276
rfingers 7.125019999999999
rthumb 9.155056315413 1.4743883187990154
117
root 0.1538855722984055 17.52853879569489 63.88605667108049 2.7620289677799135 -0.5781834282438073 -1.1768542806512965
lfemur 2.106019136292028 -3.561505079415982 -20.06655246095344
ltibia 47.309759484808815
lfoot 13.571299319290203 -9.105719245877488
ltoes -6.295962511541392
rfemur -29.113218949604942 4.163585693065247 26.80608552631139
rtibia 39.7598823274573
rfoot -6.762399616828524 -3.3616155620341224
rtoes 2.495689290471579
lowerback 12.444319553552841 -0.3586429645454339 0.9763378131312994
upperback -0.7158197391262817 -0.26507040725084074 2.4827848902931553
thorax -7.693929325623622 -0.08817785194372396 2.5168557615934537
lowerneck -17.80965606298549 -2.968623866437439 -3.5162393013528366
upperneck 18.62623593914866 -3.5124852122564105 2.4754790106176436
head 8.837083167222517 -1.5934403861096555 1.0460020047119487
lclavicle -2.2635300712712465e-15 6.834331615839645e-16
lhumerus -41.05440363768758 -8.771659352674508 90.3208707045024
lradius 75.27109120539072
lwrist 22.385303424344354
lhand -26.59733968054501 11.821019692257517
lfingers 7.125019999999999
lthumb -0.16263174865030733 41.518161435679566
rclavicle -2.258695397620627e-15 6.868391152685022e-16
rhumerus -39.81173785134711 -6.4526055295371325 -86.15882037595877
rradius 60.288316222528564
rwrist 0.8684101902346617
rhand -16.266002860611067 30.64716456091512
rfingers 7.125019999999999
rthumb 9.17224120589264 1.3441181225619365
118
root 0.16057031971569802 17.529263773635915 64.17802449998959 2.942786987585936 -0.9783459755333559 -1.4658760466763836
lfemur 0.44237067036520017 -3.5840569295498113 -19.658005256518123
ltibia 50.23431179630727
lfoot 14.629730120958543 -7.49677528470084
ltoes -4.706792289169918
rfemur -27.63335884071104 4.111603413756715 27.49090085596432
rtibia 38.24630456795909
rfoot -7.364525118010826 -2.2560020688512905
rtoes 0.5475318424520195
lowerback 12.407801013329257 -0.3058239034391941 1.3551332346569476
upperback -0.7689412520114915 -0.15164168721163085 2.501488591844574
thorax -7.644263361867805 -0.042102867245821685 2.37135492331013
lowerneck -17.813566520354094 -2.9881944045948154 -3.5477009700848643
upperneck 18.597468773074976 -3.5296144515512493 2.476083342348955
head 8.832062396657403 -1.6035234827777227 1.052517854214233
lclavicle -2.2627689647614024e-15 6.839679279320108e-16
lhumerus -42.616314135237445 -8.534553746936771 90.38865472544495
lradius 74.56086250768698
lwrist 22.024938760173242
lhand -26.458726582240505 11.363595176716574
lfingers 7.125019999999999
lthumb 0.019672994701189273 41.17585751637498
rclavicle -2.259218360481318e-15 6.864724977389487e-16
rhumerus -39.54749284960961 -6.182904051627447 -86.00716204521034
rradius 60.42379599089113
rwrist 0.8345200853147898
rhand -16.297318909001827 30.53317879742169
rfingers 7.125019999999999
rthumb 9.125453149994243 1.2585476172867043
119
root 0.1621920788894738 17.505204720025812 64.27396502734942 2.9892022572383854 -1.4701294483607197 -1.5398607553220773
lfemur -1.359681329126408 -3.3981989582318297 -19.370641346933663
ltibia 53.10072261341057
lfoot 14.461702794061955 -5.811484171847717
ltoes -4.324174049628983
rfemur -26.068486839903397 3.973681135513921 27.948901829536016
rtibia 36.935630915060074
rfoot -7.461256168842536 -1.2394742524520135
rtoes -0.7351829453960406
lowerback 12.426011338799006 -0.21789661118863202 1.4861853076279998
upperback -0.7468836718126408 -0.02746189695102963 2.447121234773271
thorax -7.575199950889734 0.011869068167637664 2.2618499414213447
lowerneck -17.850668726631216 -2.9947288593487675 -3.5440721619523035
upperneck 18.53725563523092 -3.543118833201632 2.4634780319454084
head 8.818132759463678 -1.6090103510295757 1.05158368523684
lclavicle -2.26281381288664e-15 6.839380644240087e-16
lhumerus -44.04854631879118 -8.204437359361783 90.42928448906005
lradius 73.74580893387434
lwrist 21.786495784028087
lhand -26.409438452714525 11.130667341151408
lfingers 7.125019999999999
lthumb 0.08273164538388067 40.98929599302789
rclavicle -2.259000292622704e-15 6.866254120235277e-16
rhumerus -39.238196695359264 -5.8563300138057075 -85.93186416619068
rradius 60.59194077528238
rwrist 0.9220152463562803
rhand -16.32469964890386 30.499848153172277
rfingers 7.125019999999999
rthumb 9.046363400419573 1.3194280026360272
